<?xml version="1.0" encoding="utf-8"?>
<!-- Generator: Adobe Illustrator 22.1.0, SVG Export Plug-In . SVG Version: 6.00 Build 0)  -->
<svg version="1.1" id="Layer_1" xmlns="http://www.w3.org/2000/svg" xmlns:xlink="http://www.w3.org/1999/xlink" x="0px" y="0px"
	 viewBox="0 0 30 30" style="enable-background:new 0 0 30 30;" xml:space="preserve">
<style type="text/css">
	.st0{fill:#FF470F;}
</style>
<g>
	<path class="st0" d="M14.4,25.9c0,0,0,0.2,0,0.3c0,0.2,0,0.4-0.1,0.6s-0.2,0.5-0.3,0.7c-0.1,0.3-0.3,0.5-0.6,0.7s-0.6,0.4-0.9,0.5
		c-0.4,0.1-0.8,0.2-1.4,0.2c-0.4,0-0.8-0.1-1.2-0.2S9.3,28.6,9,28.4s-0.4-0.5-0.6-0.8s-0.2-0.7-0.2-1.2c0-0.4,0.1-0.8,0.2-1.1
		c0.1-0.4,0.3-0.7,0.6-1s0.6-0.5,1-0.7c0.4-0.2,0.9-0.3,1.5-0.3c1,0,1.7,0.2,2.2,0.7S14.4,25.1,14.4,25.9z M13.8,18.9
		c-0.2,0.6-0.4,1-0.7,1.3s-0.7,0.4-1.1,0.4c-0.4,0-0.8-0.1-1.1-0.3c-0.3-0.2-0.5-0.5-0.5-0.9c0-1.1,0.2-2,0.5-2.8
		c0.3-0.8,0.8-1.5,1.3-2.1s1.1-1.2,1.7-1.7s1.2-1.1,1.7-1.6s0.9-1.2,1.3-1.8s0.5-1.4,0.5-2.3c0-0.5-0.1-0.9-0.3-1.3S16.7,5.2,16.5,5
		c-0.3-0.2-0.6-0.4-1-0.5s-0.7-0.2-1.1-0.2c-0.3,0-0.6,0.1-0.8,0.3S13,5,12.8,5.2c-0.3,0.2-0.5,0.5-0.7,0.7
		c-0.2,0.2-0.3,0.4-0.4,0.6c-0.2,0.3-0.4,0.4-0.7,0.6s-0.5,0.2-0.8,0.2c-0.2,0-0.4-0.1-0.7-0.2C9.4,7,9.2,6.8,9.1,6.6
		C8.9,6.4,8.8,6.1,8.7,5.8C8.6,5.6,8.5,5.3,8.5,4.9c0-0.2,0.1-0.5,0.3-0.8c0.4-0.5,0.8-1,1.2-1.3c0.5-0.4,1-0.7,1.6-1
		c0.6-0.3,1.1-0.5,1.7-0.6C13.9,1.1,14.5,1,15.1,1c0.7,0,1.5,0.1,2.3,0.3c0.8,0.2,1.5,0.6,2.2,1.1c0.7,0.5,1.2,1.1,1.6,1.9
		C21.5,5,21.8,5.9,21.8,7c0,1.2-0.1,2.3-0.4,3.2c-0.3,0.9-0.7,1.6-1.2,2.3s-1,1.2-1.6,1.7s-1.2,1-1.8,1.5s-1.1,1-1.7,1.5
		S14.2,18.2,13.8,18.9z"/>
</g>
</svg>
